PathFileType   4   (X/Y/Z)
DataRate	CameraRate	NumFrames	NumMarkers	Units	OrigDataRate	OrigDataStartFrame	OrigNumFrames
120.0	120.0	6	37	mm	120.0	27	105
Frame#	Time	midhip	hip_r	hip_l	knee_r	knee_l	ankle_r	ankle_l	midasis	asis_r	asis_l	psis_r	psis_l	epicondLat_r	epicondLat_l	epicondMed_r	epicondMed_l	malleolusLat_r	malleolusLat_l	malleolusMedv_r	malleolusMedv_l	neck	subclavicle_r	subclavicle_l	sternalnotch	xyphoidprocess	thighwand_r	thighwand_l	upperleg1_r	upperleg1_l	upperleg2_r	upperleg2_l	shankwand_r	shankwand_l	lowerleg1_r	lowerleg1_l	toe_r	toe_l
 	 	X1	Y1	Z1	X2	Y2	Z2	X3	Y3	Z3	X4	Y4	Z4	X5	Y5	Z5	X6	Y6	Z6	X7	Y7	Z7	X8	Y8	Z8	X9	Y9	Z9	X10	Y10	Z10	X11	Y11	Z11	X12	Y12	Z12	X13	Y13	Z13	X14	Y14	Z14	X15	Y15	Z15	X16	Y16	Z16	X17	Y17	Z17	X18	Y18	Z18	X19	Y19	Z19	X20	Y20	Z20	X21	Y21	Z21	X22	Y22	Z22	X23	Y23	Z23	X24	Y24	Z24	X25	Y25	Z25	X26	Y26	Z26	X27	Y27	Z27	X28	Y28	Z28	X29	Y29	Z29	X30	Y30	Z30	X31	Y31	Z31	X32	Y32	Z32	X33	Y33	Z33	X34	Y34	Z34	X35	Y35	Z35	X36	Y36	Z36	X37	Y37	Z37

	27	0.32500	762.255	743.085	-207.258	748.971	743.461	-150.984	757.298	742.415	-281.029	727.784	404.229	-191.581	900.098	445.970	-297.793	666.601	67.409	-220.902	805.929	114.473	-307.545	828.596	806.022	-211.681	822.268	806.816	-112.870	834.924	805.227	-310.492	671.358	860.642	-186.441	672.365	856.407	-241.512	728.851	397.629	-136.989	904.117	450.966	-351.914	735.100	414.866	-235.763	920.328	416.046	-259.542	658.230	65.751	-184.386	800.486	117.093	-344.048	668.532	71.175	-245.574	811.166	114.478	-278.228	706.249	1219.005	-232.300	814.711	1165.359	-186.484	818.878	1166.407	-262.371	802.245	1164.066	-226.649	833.642	1083.046	-223.634	842.607	507.513	-70.955	983.743	621.825	-282.373	767.672	572.143	-92.929	896.853	644.572	-323.827	764.613	489.967	-118.393	930.059	563.662	-326.889	662.971	169.348	-98.832	851.968	229.827	-416.811	661.425	141.209	-177.636	826.088	196.539	-344.616	758.592	35.347	-198.079	888.812	54.083	-321.257
	28	0.33333	772.770	742.357	-208.057	758.721	742.787	-151.191	768.316	741.848	-281.150	731.629	404.058	-191.605	912.412	445.862	-296.832	667.086	67.734	-221.231	838.905	107.693	-306.693	839.065	805.239	-211.047	831.767	805.953	-112.194	846.364	804.525	-309.900	682.046	860.120	-187.737	683.316	855.896	-242.694	732.070	397.508	-136.998	916.483	450.712	-350.963	742.003	414.515	-236.030	935.524	416.500	-260.160	658.521	66.165	-184.756	833.135	110.010	-343.166	669.246	71.445	-245.856	844.186	107.779	-277.481	717.764	1218.480	-231.712	826.086	1164.516	-186.024	830.144	1165.283	-262.456	813.554	1163.139	-226.428	844.599	1081.993	-223.185	847.193	505.976	-70.049	996.021	622.547	-281.777	773.678	571.779	-92.903	909.202	644.973	-323.599	770.288	489.483	-118.326	943.637	564.534	-326.756	663.922	169.723	-99.214	877.120	225.990	-416.020	662.158	142.046	-177.738	853.857	190.855	-343.601	758.885	35.248	-198.049	925.424	53.065	-320.914
	29	0.34167	783.467	741.529	-208.766	768.545	742.009	-151.227	779.230	740.986	-281.099	735.584	403.933	-191.684	924.315	445.237	-295.701	667.638	68.096	-221.660	872.355	101.537	-305.904	849.547	804.231	-210.433	841.415	805.010	-111.578	857.679	803.453	-309.287	692.809	859.436	-189.104	694.390	855.191	-243.917	735.254	397.430	-137.071	928.254	449.844	-349.863	743.741	414.865	-235.763	946.261	416.255	-259.249	658.818	66.630	-185.242	866.192	103.550	-342.332	670.143	71.920	-246.120	877.533	101.675	-276.892	729.303	1217.793	-231.153	837.089	1163.532	-185.373	840.930	1164.258	-261.816	824.434	1162.201	-225.740	855.113	1080.913	-222.561	851.545	504.480	-68.884	1008.055	622.475	-281.630	779.560	571.444	-92.839	921.149	644.637	-323.603	773.773	489.198	-118.104	955.123	563.927	-326.491	664.765	170.188	-99.710	902.169	222.481	-415.210	663.106	142.575	-178.019	881.533	185.609	-342.480	759.132	35.161	-197.991	961.978	52.848	-320.449
	30	0.35000	794.270	740.537	-209.380	778.529	741.123	-151.040	790.080	739.846	-280.836	739.621	403.895	-191.860	935.906	444.111	-294.407	668.283	68.507	-222.210	906.112	96.218	-305.153	860.103	803.011	-209.807	851.307	803.983	-110.968	868.900	802.039	-308.646	703.669	858.594	-190.468	705.590	854.306	-245.148	738.394	397.427	-137.255	939.539	448.390	-348.617	756.405	414.049	-236.566	957.343	415.425	-258.721	659.131	67.165	-185.869	899.513	97.907	-341.521	671.058	72.697	-246.664	910.962	96.262	-276.238	740.891	1216.889	-230.644	849.030	1162.289	-185.100	851.332	1162.953	-261.488	835.558	1160.990	-225.145	865.938	1079.569	-222.531	855.708	503.022	-67.515	1019.753	621.587	-281.883	785.308	571.103	-92.747	933.127	643.560	-324.084	781.353	488.970	-117.998	966.786	562.834	-326.574	665.456	170.777	-100.363	927.099	219.438	-414.357	664.274	143.093	-178.700	909.182	180.866	-341.504	759.359	35.099	-197.942	998.377	53.580	-319.813
	31	0.35833	805.116	739.381	-209.755	788.408	740.136	-150.890	800.897	738.502	-280.596	743.784	403.909	-192.152	947.190	442.520	-292.958	669.025	68.969	-222.864	939.880	91.904	-304.417	870.617	801.604	-209.213	861.105	802.848	-110.424	880.129	800.359	-308.003	714.580	857.626	-191.775	716.914	853.248	-246.360	741.519	397.512	-137.573	950.417	446.381	-347.225	760.731	414.005	-236.523	966.119	413.961	-257.514	659.460	67.781	-186.624	932.861	93.237	-340.721	671.941	73.359	-247.590	944.203	91.765	-275.256	752.520	1215.788	-230.140	860.649	1160.922	-184.710	865.247	1161.788	-260.842	848.392	1159.684	-225.072	878.933	1078.350	-221.743	859.592	501.609	-66.004	1031.033	619.861	-282.449	791.011	570.783	-92.662	944.915	641.789	-324.810	785.575	488.657	-117.779	977.447	560.684	-326.640	665.997	171.495	-101.183	951.868	216.946	-413.423	665.538	143.375	-179.919	936.884	176.722	-340.541	759.585	35.076	-197.934	1034.439	55.393	-318.994
	32	0.36667	816.136	738.181	-209.873	798.417	739.042	-150.680	811.771	736.970	-280.293	748.102	403.974	-192.550	958.211	440.485	-291.355	669.836	69.479	-223.578	973.324	88.709	-303.675	881.226	800.052	-208.635	871.055	801.630	-109.912	891.397	798.474	-307.358	725.529	856.533	-193.017	728.353	852.023	-247.538	744.674	397.675	-138.020	960.947	443.864	-345.682	766.103	413.570	-236.255	975.718	411.654	-256.293	659.801	68.476	-187.459	965.943	89.661	-339.919	672.754	73.984	-248.516	977.325	88.443	-274.298	764.135	1214.499	-229.659	872.003	1159.382	-184.270	875.658	1160.164	-260.686	859.239	1158.171	-224.589	889.427	1076.693	-221.571	863.260	500.240	-64.428	1041.858	617.269	-283.211	796.784	570.532	-92.737	955.492	639.083	-325.251	790.165	488.464	-117.463	987.493	557.739	-326.668	666.446	172.332	-102.127	976.380	215.049	-412.373	666.308	143.272	-181.381	964.279	173.472	-339.639	759.791	35.090	-197.976	1069.894	58.348	-318.018
